<svg width="43" height="42" viewBox="0 0 43 42" fill="none" xmlns="http://www.w3.org/2000/svg">
<path d="M28.6666 14C31.5177 14 34.252 15.1062 36.268 17.0754C38.284 19.0445 39.4166 21.7152 39.4166 24.5V36.75H32.25V24.5C32.25 23.5717 31.8724 22.6815 31.2004 22.0251C30.5284 21.3687 29.617 21 28.6666 21C27.7163 21 26.8048 21.3687 26.1328 22.0251C25.4608 22.6815 25.0833 23.5717 25.0833 24.5V36.75H17.9166V24.5C17.9166 21.7152 19.0492 19.0445 21.0652 17.0754C23.0812 15.1062 25.8155 14 28.6666 14V14Z" stroke="white" stroke-width="2" stroke-linecap="round" stroke-linejoin="round"/>
<path d="M10.75 15.75H3.58337V36.75H10.75V15.75Z" stroke="white" stroke-width="2" stroke-linecap="round" stroke-linejoin="round"/>
<path d="M7.16671 10.5C9.14573 10.5 10.75 8.933 10.75 7C10.75 5.067 9.14573 3.5 7.16671 3.5C5.18769 3.5 3.58337 5.067 3.58337 7C3.58337 8.933 5.18769 10.5 7.16671 10.5Z" stroke="white" stroke-width="2" stroke-linecap="round" stroke-linejoin="round"/>
</svg>
