<svg width="44" height="44" viewBox="0 0 44 44" fill="none" xmlns="http://www.w3.org/2000/svg">
<path d="M2.43841 0.152317C1.30833 0.499336 0.495674 1.33164 0.15849 2.47145C0.0197551 2.94731 0 4.92931 0 22.0068C0 40.7098 -1.71272e-08 41.0169 0.198449 41.6414C0.525755 42.7017 1.36804 43.5147 2.47837 43.8415C2.95429 43.9802 4.95674 44 22.0063 44C39.0563 44 41.0583 43.9802 41.5342 43.8415C42.5355 43.5443 43.2291 42.9396 43.6853 41.9682C43.8681 41.5763 43.9631 41.1493 43.9638 40.717L43.9924 22.1949C44.0122 5.00832 44.0023 2.96662 43.8537 2.49121C43.5362 1.37114 42.7137 0.518639 41.6532 0.191822C41.0287 -0.00660324 40.7315 -0.00660324 21.9668 0.00327301C5.35274 0.00372314 2.86494 0.0234756 2.43841 0.152317ZM24.0878 7.04105C27.1902 7.82397 29.6488 10.4111 30.2832 13.5626C30.5113 14.6727 30.4417 16.4765 30.1346 17.5369C28.9547 21.6207 24.8807 24.2371 20.7173 23.583C17.7733 23.1174 15.2653 21.1251 14.1752 18.3993C13.3724 16.3773 13.3724 13.9787 14.1949 12.0165C15.801 8.14091 20.0236 6.0202 24.0878 7.04105ZM29.7876 27.2799C33.6335 28.0529 36.3894 29.8665 37.906 32.622C38.7685 34.178 38.9863 35.4269 38.9369 38.5492C38.9204 39.6761 38.0022 40.581 36.8752 40.581H22.0063H7.73155C6.28089 40.581 5.1049 39.405 5.1049 37.9544C5.11478 34.991 5.17449 34.5843 5.84841 33.1275C6.31445 32.1166 6.69115 31.5716 7.5038 30.7092C9.33743 28.7667 12.0834 27.498 15.1661 27.1609C15.6321 27.1115 18.933 27.0814 22.5015 27.1016C27.9836 27.1214 29.1137 27.151 29.7876 27.2799Z" fill="white"/>
</svg>
