<svg width="615" height="362" viewBox="0 0 615 362" fill="none" xmlns="http://www.w3.org/2000/svg">
<g clip-path="url(#clip0_18_1155)">
<path d="M364.927 11.1056C409.201 -11.0072 465.393 0.585399 495.184 39.7943L494.17 40.4659C464.747 1.741 409.242 -9.70562 365.513 12.1293C361.798 13.9848 358.212 16.0569 354.776 18.3334C309.807 48.1056 299.171 106.477 331.065 148.453L330.051 149.124C297.76 106.626 308.529 47.5288 354.056 17.3868C357.535 15.0825 361.166 12.9846 364.927 11.1056Z" fill="#E6E6E6"/>
<path d="M599.471 105.624L453.85 95.0487C451.59 94.8821 449.493 93.8854 448.018 92.2771C446.544 90.6689 445.814 88.5804 445.987 86.47L452.3 20.4262C452.478 18.3161 453.546 16.3583 455.269 14.9822C456.992 13.6061 459.229 12.9241 461.49 13.0859L607.11 23.6607C609.371 23.8273 611.468 24.824 612.942 26.4323C614.417 28.0406 615.147 30.129 614.974 32.2395L608.661 98.2832C608.483 100.393 607.415 102.351 605.692 103.727C603.969 105.103 601.732 105.785 599.471 105.624Z" fill="#E6E6E6"/>
<path d="M565.074 90.7033C563.968 90.7033 562.859 90.663 561.746 90.5823L467.636 83.7481C465.754 83.6115 463.92 83.1303 462.238 82.3319C460.555 81.5335 459.058 80.4336 457.831 79.095C456.603 77.7563 455.671 76.2052 455.086 74.5301C454.501 72.855 454.276 71.0888 454.422 69.3323L456.568 43.5824C456.868 40.0364 458.662 36.7461 461.557 34.4336C464.453 32.121 468.213 30.975 472.012 31.2468L593.707 40.0842C597.505 40.3642 601.03 42.0392 603.507 44.7418C605.984 47.4444 607.212 50.9538 606.921 54.5003C606.1 64.341 601.338 73.5318 593.582 80.2412C585.827 86.9506 575.648 90.6861 565.074 90.7033V90.7033Z" fill="white"/>
<path d="M590.795 60.5548L471.497 51.8914C471.249 51.8734 471.006 51.8098 470.784 51.7044C470.562 51.5989 470.364 51.4536 470.202 51.2768C470.04 51.1 469.917 50.8951 469.839 50.6739C469.762 50.4526 469.732 50.2193 469.752 49.9873C469.771 49.7553 469.839 49.5292 469.952 49.3217C470.065 49.1143 470.221 48.9297 470.41 48.7784C470.6 48.6271 470.819 48.5121 471.056 48.44C471.293 48.3679 471.543 48.3401 471.792 48.3581L591.089 57.0214C591.338 57.0395 591.58 57.103 591.802 57.2085C592.025 57.314 592.222 57.4592 592.384 57.6361C592.546 57.8129 592.67 58.0177 592.747 58.239C592.824 58.4602 592.854 58.6935 592.835 58.9255C592.815 59.1575 592.747 59.3837 592.634 59.5911C592.521 59.7986 592.366 59.9832 592.176 60.1345C591.987 60.2858 591.767 60.4008 591.53 60.4729C591.293 60.545 591.043 60.5728 590.795 60.5548Z" fill="#E6E6E6"/>
<path d="M541.259 63.9806L470.915 58.8722C470.414 58.8355 469.948 58.6143 469.621 58.2573C469.294 57.9002 469.132 57.4365 469.171 56.9681C469.21 56.4998 469.447 56.065 469.829 55.7595C470.211 55.4539 470.708 55.3026 471.21 55.3388L541.554 60.4471C541.802 60.465 542.045 60.5285 542.267 60.6339C542.49 60.7393 542.688 60.8846 542.85 61.0614C543.012 61.2383 543.135 61.4432 543.213 61.6646C543.29 61.8859 543.32 62.1193 543.3 62.3514C543.281 62.5835 543.213 62.8098 543.1 63.0173C542.987 63.2248 542.831 63.4094 542.641 63.5607C542.452 63.712 542.232 63.827 541.995 63.899C541.758 63.9711 541.508 63.9988 541.259 63.9806V63.9806Z" fill="#E6E6E6"/>
<path d="M556.755 72.1292L470.333 65.8534C470.085 65.8355 469.842 65.772 469.62 65.6666C469.398 65.5612 469.2 65.4159 469.037 65.239C468.875 65.0622 468.752 64.8572 468.675 64.6359C468.597 64.4146 468.568 64.1812 468.587 63.9491C468.606 63.717 468.674 63.4907 468.787 63.2832C468.9 63.0757 469.056 62.891 469.246 62.7397C469.435 62.5884 469.655 62.4735 469.892 62.4014C470.129 62.3294 470.379 62.3017 470.628 62.3199L557.049 68.5957C557.551 68.6325 558.017 68.8537 558.344 69.2107C558.671 69.5678 558.833 70.0315 558.794 70.4998C558.755 70.9682 558.518 71.403 558.136 71.7085C557.753 72.0141 557.257 72.1654 556.755 72.1292Z" fill="#E6E6E6"/>
<path d="M589.727 195.277L444.106 184.702C441.846 184.536 439.748 183.539 438.274 181.931C436.8 180.322 436.07 178.234 436.243 176.124L442.556 110.08C442.734 107.97 443.802 106.012 445.525 104.636C447.248 103.26 449.485 102.578 451.746 102.739L597.366 113.314C599.627 113.481 601.724 114.478 603.198 116.086C604.672 117.694 605.403 119.783 605.23 121.893L598.917 187.937C598.738 190.047 597.671 192.005 595.948 193.381C594.225 194.757 591.987 195.439 589.727 195.277Z" fill="#E6E6E6"/>
<path d="M555.292 180.355C554.202 180.355 553.105 180.315 552.001 180.236L457.892 173.402C456.01 173.265 454.176 172.784 452.493 171.985C450.811 171.187 449.313 170.087 448.086 168.748C446.859 167.41 445.926 165.859 445.341 164.184C444.757 162.508 444.531 160.742 444.677 158.986L446.823 133.236C446.97 131.479 447.485 129.767 448.341 128.196C449.196 126.626 450.374 125.228 451.809 124.082C453.243 122.937 454.905 122.066 456.699 121.52C458.494 120.975 460.386 120.764 462.268 120.901L583.962 129.738C585.844 129.875 587.678 130.356 589.361 131.154C591.043 131.953 592.541 133.053 593.768 134.391C594.995 135.73 595.927 137.281 596.512 138.956C597.097 140.631 597.323 142.397 597.176 144.154C596.343 153.996 591.571 163.185 583.811 169.893C576.05 176.601 565.868 180.336 555.292 180.355Z" fill="white"/>
<path d="M581.05 150.208L461.753 141.545C461.504 141.527 461.262 141.463 461.04 141.358C460.817 141.252 460.62 141.107 460.458 140.93C460.295 140.754 460.172 140.549 460.095 140.327C460.018 140.106 459.988 139.873 460.007 139.641C460.027 139.409 460.095 139.183 460.208 138.975C460.321 138.768 460.476 138.583 460.666 138.432C460.855 138.281 461.075 138.166 461.312 138.094C461.549 138.021 461.799 137.994 462.047 138.012L581.345 146.675C581.593 146.693 581.836 146.757 582.058 146.862C582.28 146.968 582.478 147.113 582.64 147.29C582.802 147.466 582.925 147.671 583.002 147.893C583.08 148.114 583.11 148.347 583.09 148.579C583.071 148.811 583.003 149.037 582.89 149.245C582.777 149.452 582.621 149.637 582.432 149.788C582.242 149.939 582.023 150.054 581.786 150.126C581.549 150.199 581.299 150.226 581.05 150.208Z" fill="#E6E6E6"/>
<path d="M531.515 153.634L461.171 148.526C460.922 148.508 460.68 148.444 460.457 148.339C460.235 148.234 460.037 148.088 459.875 147.911C459.713 147.735 459.589 147.53 459.512 147.308C459.435 147.087 459.405 146.854 459.424 146.621C459.444 146.389 459.512 146.163 459.625 145.956C459.738 145.748 459.894 145.563 460.083 145.412C460.273 145.261 460.492 145.146 460.73 145.074C460.967 145.002 461.217 144.974 461.465 144.992L531.809 150.101C532.311 150.137 532.777 150.358 533.104 150.716C533.431 151.073 533.593 151.536 533.554 152.005C533.515 152.473 533.278 152.908 532.896 153.213C532.513 153.519 532.017 153.67 531.515 153.634Z" fill="#E6E6E6"/>
<path d="M547.011 161.783L460.589 155.507C460.087 155.47 459.621 155.249 459.294 154.892C458.967 154.535 458.805 154.071 458.844 153.603C458.883 153.134 459.12 152.699 459.502 152.394C459.885 152.088 460.382 151.937 460.884 151.973L547.305 158.249C547.807 158.286 548.273 158.507 548.6 158.864C548.928 159.221 549.09 159.685 549.051 160.153C549.011 160.622 548.775 161.057 548.392 161.362C548.01 161.668 547.513 161.819 547.011 161.783Z" fill="#E6E6E6"/>
<path d="M219.31 160.771C217.462 156.861 216.457 152.649 216.352 148.376C216.247 144.103 217.045 139.853 218.7 135.868C220.355 131.883 222.835 128.241 225.997 125.151C229.16 122.06 232.944 119.582 237.133 117.856C241.322 116.131 245.834 115.192 250.411 115.095C254.988 114.997 259.542 115.742 263.811 117.287C268.08 118.831 271.981 121.146 275.292 124.098C278.603 127.051 281.258 130.583 283.106 134.493L281.969 134.962C280.186 131.191 277.626 127.785 274.433 124.938C271.24 122.091 267.478 119.859 263.361 118.369C259.245 116.879 254.854 116.161 250.44 116.255C246.025 116.35 241.674 117.254 237.635 118.918C233.595 120.582 229.947 122.972 226.897 125.953C223.847 128.933 221.456 132.445 219.86 136.288C218.264 140.13 217.494 144.229 217.595 148.349C217.696 152.47 218.666 156.531 220.448 160.302L219.31 160.771Z" fill="#E6E6E6"/>
<path d="M580.707 342.272C594.943 335.975 605.547 323.306 603.892 309.383C591.121 319.036 573.733 324.427 555.783 324.298C548.792 324.248 540.962 323.584 535.881 327.246C532.72 329.524 531.294 333.143 531.114 336.749C530.934 340.355 531.87 344.004 532.801 347.606L532.518 348.46C549.233 349.453 566.471 348.569 580.707 342.272Z" fill="#F2F2F2"/>
<path d="M603.542 309.348C598.036 319.377 588.49 327.735 576.627 332.628C574.027 333.76 571.26 334.519 568.417 334.879C565.523 335.162 562.598 334.805 559.878 333.837C557.3 332.974 554.758 331.849 552.024 331.507C550.685 331.333 549.322 331.412 548.017 331.74C546.712 332.069 545.491 332.64 544.428 333.419C541.901 335.253 540.394 337.791 539.028 340.323C537.512 343.134 535.992 346.078 533.023 347.994C532.663 348.226 533.164 348.709 533.524 348.477C538.69 345.144 539.435 339.116 543.54 335.079C544.506 334.06 545.706 333.258 547.051 332.733C548.395 332.208 549.85 331.974 551.305 332.049C554.096 332.241 556.718 333.399 559.321 334.292C561.968 335.268 564.808 335.703 567.651 335.568C570.516 335.332 573.322 334.666 575.96 333.595C581.696 331.367 587.006 328.283 591.682 324.464C596.848 320.293 601.113 315.239 604.247 309.575C604.437 309.228 603.731 309.004 603.542 309.348H603.542Z" fill="white"/>
<path d="M580.601 331.215C582.099 332.865 584.112 334.038 586.358 334.571C588.604 335.104 590.972 334.97 593.133 334.188C593.548 334.026 593.209 333.459 592.795 333.622C590.784 334.353 588.578 334.478 586.488 333.978C584.398 333.478 582.528 332.38 581.141 330.836C580.85 330.506 580.311 330.886 580.601 331.215V331.215Z" fill="white"/>
<path d="M561.13 334.414C561.406 332.456 562.123 330.573 563.234 328.892C564.345 327.21 565.825 325.768 567.577 324.658C567.936 324.425 567.435 323.942 567.076 324.175C565.256 325.333 563.72 326.837 562.568 328.589C561.416 330.341 560.675 332.301 560.394 334.34C560.343 334.729 561.08 334.801 561.13 334.414L561.13 334.414Z" fill="white"/>
<path d="M596.003 319.867C595.318 319.376 594.78 318.73 594.438 317.99C594.096 317.25 593.962 316.441 594.049 315.639C594.106 315.251 593.369 315.18 593.313 315.565C593.221 316.451 593.37 317.344 593.745 318.162C594.121 318.98 594.712 319.697 595.462 320.246C595.53 320.308 595.618 320.347 595.713 320.357C595.807 320.366 595.903 320.345 595.983 320.298C596.018 320.273 596.046 320.241 596.067 320.205C596.087 320.168 596.098 320.128 596.1 320.087C596.102 320.046 596.095 320.005 596.078 319.967C596.061 319.929 596.035 319.895 596.003 319.867V319.867Z" fill="white"/>
<path d="M556.924 279.945C556.88 280.186 556.836 280.426 556.787 280.669C556.178 283.893 555.247 287.058 554.007 290.121C553.916 290.359 553.819 290.599 553.719 290.834C550.583 298.25 545.815 304.969 539.722 310.557C537.239 312.839 534.562 314.93 531.716 316.807C527.749 319.427 523.171 321.987 520.66 325.517C520.394 325.881 520.156 326.262 519.947 326.658L531.257 348.019C531.311 348.059 531.36 348.1 531.414 348.141L531.82 349.007C531.977 348.919 532.138 348.824 532.295 348.735C532.387 348.684 532.476 348.628 532.567 348.577C532.627 348.542 532.687 348.506 532.744 348.477C532.764 348.465 532.784 348.453 532.799 348.443C532.856 348.414 532.905 348.382 532.956 348.354C533.855 347.826 534.751 347.291 535.643 346.75C535.649 346.748 535.649 346.748 535.652 346.741C542.436 342.6 548.816 337.921 554.059 332.523C554.216 332.36 554.38 332.196 554.532 332.024C556.862 329.598 558.949 326.977 560.767 324.195C561.746 322.682 562.631 321.118 563.416 319.51C565.432 315.355 566.627 310.894 566.942 306.343C567.581 297.225 564.684 287.797 557.48 280.499C557.296 280.312 557.114 280.13 556.924 279.945Z" fill="#F2F2F2"/>
<path d="M556.635 280.091C559.785 291.368 558.7 303.262 553.366 313.382C552.256 315.629 550.728 317.675 548.852 319.423C546.843 321.142 544.372 322.322 541.703 322.837C539.146 323.402 536.428 323.727 534.133 324.813C533.007 325.339 532.03 326.107 531.282 327.053C530.535 327.999 530.038 329.097 529.832 330.257C529.27 333.084 529.983 335.996 530.796 338.831C531.7 341.978 532.697 345.24 531.863 348.36C531.762 348.737 532.488 348.895 532.588 348.517C534.039 343.09 530.226 337.602 530.372 332.112C530.44 329.55 531.439 327.054 533.988 325.634C536.217 324.393 539.019 324.055 541.616 323.502C544.239 323.027 546.698 321.959 548.777 320.392C550.758 318.743 552.384 316.756 553.568 314.538C556.282 309.651 558.027 304.347 558.717 298.88C559.545 292.538 559.073 286.106 557.327 279.928C557.218 279.538 556.527 279.704 556.635 280.091H556.635Z" fill="white"/>
<path d="M555.316 310.183C559.969 311.544 564.905 309.916 566.855 306.398C567.048 306.052 566.383 305.741 566.191 306.088C564.363 309.384 559.796 310.862 555.446 309.59C554.988 309.456 554.861 310.05 555.316 310.183V310.183Z" fill="white"/>
<path d="M543.059 322.696C541.868 321.018 541.054 319.132 540.668 317.152C540.281 315.172 540.33 313.139 540.811 311.177C540.91 310.798 540.185 310.641 540.085 311.019C539.59 313.062 539.544 315.178 539.952 317.238C540.359 319.299 541.21 321.26 542.454 323.004C542.698 323.359 543.301 323.049 543.059 322.696Z" fill="white"/>
<path d="M558.618 292.807C557.705 292.711 556.825 292.427 556.043 291.977C555.26 291.527 554.593 290.922 554.089 290.204C553.851 289.847 553.247 290.157 553.484 290.512C554.044 291.303 554.782 291.971 555.646 292.47C556.51 292.969 557.48 293.286 558.488 293.4C558.688 293.423 558.875 293.357 558.916 293.182C558.927 293.096 558.902 293.009 558.847 292.94C558.792 292.87 558.71 292.822 558.618 292.807Z" fill="white"/>
<path d="M580.934 190.602L572.281 147.606L555.296 126.736L542.708 134.418C544.486 143.424 557.941 160.236 557.941 160.236L569.867 193.488C569.819 193.661 569.775 193.836 569.743 194.015C569.554 195.067 569.659 196.147 570.047 197.15C570.436 198.153 571.095 199.046 571.961 199.742C572.827 200.438 573.871 200.913 574.992 201.122C576.112 201.332 577.272 201.268 578.358 200.936C579.444 200.605 580.42 200.018 581.193 199.231C581.965 198.445 582.506 197.486 582.765 196.447C583.024 195.408 582.992 194.324 582.671 193.3C582.35 192.277 581.752 191.347 580.934 190.603V190.602Z" fill="#FFB8B8"/>
<path d="M543.046 138.961L557.297 128.164L557.324 128.107C559.989 122.469 554.071 112.801 548.637 105.684C546.843 103.338 544.162 101.716 541.136 101.145C538.11 100.574 534.964 101.097 532.336 102.608C530.404 103.735 528.849 105.344 527.846 107.253C526.843 109.161 526.432 111.294 526.659 113.409L527.858 124.18L543.046 138.961Z" fill="#3F3D56"/>
<path d="M492.678 352.939L483.195 352.938L478.685 318.797L492.68 318.797L492.678 352.939Z" fill="#FFB8B8"/>
<path d="M495.097 350.049L492.428 350.049L482.008 346.093L476.423 350.048H476.422C473.266 350.048 470.239 351.219 468.007 353.302C465.775 355.385 464.521 358.211 464.521 361.157V361.518L495.096 361.519L495.097 350.049Z" fill="#2F2E41"/>
<path d="M534.753 352.939L525.27 352.938L520.759 318.797L534.754 318.797L534.753 352.939Z" fill="#FFB8B8"/>
<path d="M537.172 350.049L534.503 350.049L524.082 346.093L518.498 350.048H518.497C515.341 350.048 512.314 351.219 510.082 353.302C507.85 355.385 506.596 358.211 506.596 361.157V361.518L537.171 361.519L537.172 350.049Z" fill="#2F2E41"/>
<path d="M549.211 205.881C549.211 205.881 550.319 218.284 547.551 230.17C544.783 242.056 544.783 275.53 544.783 275.53L538.693 340.761L520.423 339.21L515.441 230.17L497.725 266.861L499.386 272.029L497.174 273.321C497.174 273.321 498.832 283.398 497.725 283.398C496.618 283.398 493.85 284.948 493.85 284.948L496.064 338.177L477.241 337.66L470.598 262.727L477.795 219.834L478.349 211.566L480.84 211.661L482.108 208.207L484.438 202.264L549.211 205.881Z" fill="#2F2E41"/>
<path d="M550.168 208.486L550.267 208.357C555.537 201.47 547.611 184.922 546.416 182.523L551.451 180.998L550.317 172.002L549.78 167.991L553.628 164.399L553.639 164.31L555.853 146.222L559.073 134.209C560.286 129.667 560.183 124.906 558.773 120.415C557.364 115.923 554.699 111.862 551.053 108.649L543.611 102.098L534.566 89.6057H519.98L514.979 98.4238C510.13 99.4699 505.828 102.071 502.822 105.773C499.816 109.475 498.297 114.045 498.53 118.685L499.663 141.812L495.226 170.608L495.223 175.819L490.229 180.999L491.32 186.089L487.519 187.609L485.841 194.918C485.147 195.774 480.563 201.479 480.563 203.039C480.563 203.273 480.748 203.499 481.146 203.75C484.269 205.725 501.535 209.75 509.177 206.896C517.317 203.858 549.674 208.416 550 208.462L550.168 208.486Z" fill="#3F3D56"/>
<path d="M423.327 361.31C423.327 361.492 423.404 361.668 423.542 361.797C423.68 361.927 423.867 362 424.063 362H598.308C598.504 362 598.692 361.927 598.831 361.798C598.97 361.668 599.048 361.493 599.048 361.31C599.048 361.127 598.97 360.951 598.831 360.821C598.692 360.692 598.504 360.619 598.308 360.619H424.067C423.871 360.619 423.683 360.691 423.545 360.819C423.406 360.948 423.328 361.123 423.327 361.306V361.31Z" fill="#CCCCCC"/>
<path d="M525.389 85.5729C536.057 85.5729 544.706 77.4997 544.706 67.541C544.706 57.5822 536.057 49.509 525.389 49.509C514.72 49.509 506.071 57.5822 506.071 67.541C506.071 77.4997 514.72 85.5729 525.389 85.5729Z" fill="#FFB8B8"/>
<path d="M523.538 85.8647C526.53 85.8362 529.513 85.5691 532.456 85.0666C535.37 84.44 541.798 79.8001 543.55 77.059C544.851 75.0224 545.633 71.8723 546.059 69.5884C546.634 66.5658 546.524 63.4641 545.733 60.4842C544.943 57.5042 543.491 54.7123 541.472 52.2894C540.693 51.2744 539.635 50.4746 538.41 49.9748C538.301 49.9382 538.19 49.9061 538.077 49.8791C536.301 49.4883 534.69 48.6108 533.452 47.3593C533.212 47.1059 532.952 46.869 532.675 46.6505C531.286 45.6124 529.654 44.8958 527.911 44.5594C525.096 43.9283 521.069 44.7191 515.943 46.9119C513.367 48.0136 510.508 47.7063 508.305 47.3154C508.181 47.2962 508.055 47.3075 507.937 47.3483C507.82 47.389 507.716 47.4577 507.636 47.5475C506.726 48.387 505.51 48.8739 504.231 48.9104C503.449 48.9614 502.655 49.9934 501.699 51.3373C501.482 51.6424 501.228 51.9985 501.045 52.2157L501.008 51.8077L500.577 52.2742C499.901 53.0075 499.434 53.8887 499.221 54.8357C499.007 55.7827 499.054 56.7647 499.356 57.6903C499.659 58.6159 500.208 59.455 500.951 60.1294C501.695 60.8038 502.609 61.2917 503.609 61.5475C504.402 61.7242 505.212 61.8248 506.027 61.8478C506.522 61.8773 507.033 61.9078 507.524 61.9752C509.1 62.2372 510.578 62.8765 511.811 63.8305C513.044 64.7844 513.991 66.0206 514.56 67.4183C514.694 67.7413 514.906 68.0312 515.179 68.2656C515.452 68.5 515.78 68.6726 516.136 68.7702C516.492 68.8677 516.867 68.8875 517.233 68.8281C517.599 68.7688 517.945 68.6317 518.245 68.4276C518.744 68.0453 519.334 67.7813 519.966 67.6581C520.598 67.5349 521.252 67.5562 521.873 67.7201C522.413 67.9837 522.84 68.4125 523.082 68.9348C523.374 69.5162 523.845 70.0031 524.435 70.3335C526.446 71.2409 526.7 75.4693 526.084 79.0141C525.491 82.4309 524.201 84.9235 522.947 85.0754C521.981 85.1922 521.872 85.2591 521.807 85.4206L521.748 85.5651L521.86 85.6964C522.4 85.8644 522.972 85.9219 523.538 85.8647Z" fill="#2F2E41"/>
<path d="M311.242 178.809C332.455 178.809 349.653 162.756 349.653 142.954C349.653 123.152 332.455 107.099 311.242 107.099C290.028 107.099 272.831 123.152 272.831 142.954C272.831 162.756 290.028 178.809 311.242 178.809Z" fill="#6C63FF"/>
<path d="M519.089 137.618L506.418 130.055C498.35 135.264 487.447 153.616 487.447 153.616L459.85 177.414C458.701 177.598 457.623 178.062 456.727 178.758C455.83 179.454 455.146 180.359 454.743 181.381C454.339 182.403 454.232 183.505 454.43 184.578C454.629 185.651 455.127 186.656 455.874 187.493C456.621 188.329 457.591 188.967 458.686 189.342C459.781 189.717 460.963 189.816 462.112 189.629C463.261 189.442 464.337 188.976 465.232 188.278C466.127 187.58 466.809 186.674 467.21 185.651L505.669 160.641L519.089 137.618Z" fill="#FFB8B8"/>
<path d="M517.881 140.687L526.319 121.782L523.267 111.334C522.66 109.285 521.451 107.436 519.777 105.995C518.102 104.553 516.03 103.578 513.793 103.179C510.756 102.656 507.621 103.23 505.02 104.783C502.42 106.336 500.548 108.753 499.783 111.545C497.472 120.015 495.697 131.026 500.365 135.383L500.413 135.428L517.881 140.687Z" fill="#3F3D56"/>
<path d="M26.4556 351.061C9.93724 343.146 -2.04719 327.852 0.458395 311.508C15.1173 323.326 35.3851 330.282 56.5361 330.756C64.7742 330.941 74.0247 330.431 79.8631 334.923C83.496 337.717 85.0311 342.029 85.0991 346.283C85.167 350.537 83.9178 354.804 82.6767 359.015L82.9761 360.03C63.246 360.618 42.9739 358.975 26.4556 351.061Z" fill="#F2F2F2"/>
<path d="M0.873022 311.48C6.9579 323.486 17.8688 333.665 31.6486 339.842C34.6654 341.267 37.8955 342.257 41.2294 342.781C44.6279 343.214 48.0881 342.896 51.3305 341.851C54.4024 340.923 57.4414 339.687 60.6764 339.38C62.2605 339.221 63.8626 339.362 65.387 339.794C66.9114 340.227 68.3266 340.942 69.5482 341.896C72.4513 344.145 74.1252 347.188 75.6328 350.218C77.3067 353.583 78.9789 357.104 82.4002 359.464C82.8147 359.75 82.2051 360.302 81.7912 360.016C75.8388 355.909 75.2017 348.782 70.5274 343.883C68.3463 341.597 65.269 339.896 61.5008 340.043C58.2058 340.172 55.0708 341.445 51.9683 342.406C48.811 343.463 45.4477 343.876 42.1049 343.618C38.7387 343.241 35.4598 342.358 32.395 341.005C25.727 338.18 19.5952 334.361 14.2395 329.7C8.3205 324.607 3.49869 318.505 0.0334471 311.722C-0.176743 311.307 0.664214 311.068 0.873037 311.48H0.873022Z" fill="white"/>
<path d="M27.0235 338.038C23.4024 341.894 17.0291 343.197 12.1407 341.105C11.6591 340.898 12.0803 340.243 12.5625 340.449C14.9018 341.381 17.495 341.604 19.9774 341.088C22.4598 340.573 24.7066 339.343 26.4018 337.574C26.758 337.195 27.3777 337.661 27.0235 338.038Z" fill="white"/>
<path d="M49.8324 342.487C49.5859 340.17 48.8165 337.928 47.5749 335.908C46.3332 333.888 44.6474 332.137 42.6284 330.769C42.2152 330.482 42.8247 329.931 43.2373 330.218C45.335 331.645 47.0849 333.47 48.3717 335.575C49.6584 337.679 50.4529 340.014 50.7026 342.425C50.7471 342.885 49.8766 342.944 49.8324 342.487V342.487Z" fill="white"/>
<path d="M9.33322 324.134C10.1593 323.58 10.8199 322.837 11.2524 321.977C11.6848 321.117 11.8748 320.169 11.8043 319.221C11.7527 318.763 12.6233 318.704 12.6745 319.16C12.7473 320.206 12.5364 321.254 12.0611 322.204C11.5857 323.155 10.8614 323.979 9.95496 324.599C9.87271 324.67 9.76714 324.713 9.65542 324.721C9.5437 324.729 9.43241 324.701 9.33963 324.642C9.29956 324.612 9.26717 324.573 9.24473 324.529C9.2223 324.486 9.21035 324.438 9.20974 324.39C9.20913 324.341 9.21987 324.293 9.2412 324.249C9.26253 324.205 9.29394 324.166 9.33323 324.134H9.33322Z" fill="white"/>
<path d="M56.9669 278.467C57.009 278.752 57.0511 279.037 57.0996 279.324C57.6882 283.144 58.6579 286.905 59.9962 290.556C60.0941 290.84 60.1986 291.126 60.3064 291.406C63.704 300.252 69.0529 308.334 76.0071 315.128C78.8399 317.904 81.9102 320.459 85.1877 322.77C89.756 325.995 95.047 329.17 97.8631 333.417C98.1621 333.855 98.4277 334.312 98.6578 334.785L84.4795 359.555C84.4143 359.6 84.3555 359.647 84.2902 359.693L83.7768 360.7C83.5952 360.59 83.4099 360.472 83.2282 360.362C83.1225 360.299 83.0199 360.23 82.9142 360.167C82.8447 360.123 82.7753 360.079 82.7093 360.042C82.6861 360.028 82.663 360.013 82.6464 360.001C82.5803 359.964 82.5242 359.925 82.4647 359.891C81.4267 359.237 80.393 358.575 79.3636 357.907C79.357 357.904 79.357 357.904 79.3536 357.896C71.5274 352.782 64.1981 347.047 58.2387 340.505C58.0594 340.308 57.8735 340.109 57.7007 339.901C55.0528 336.962 52.6993 333.802 50.6696 330.461C49.5766 328.645 48.597 326.771 47.7359 324.849C45.527 319.884 44.2981 314.588 44.1087 309.215C43.7209 298.452 47.5114 287.447 56.2892 279.1C56.5139 278.887 56.7356 278.678 56.9669 278.467Z" fill="#F2F2F2"/>
<path d="M57.3018 278.649C53.1394 291.824 53.9423 305.873 59.8211 317.98C61.0381 320.667 62.7566 323.129 64.8965 325.254C67.1949 327.35 70.0577 328.825 73.1815 329.525C76.1707 330.28 79.3601 330.758 82.0206 332.117C83.3263 332.776 84.4462 333.715 85.2889 334.855C86.1316 335.996 86.6731 337.307 86.8692 338.68C87.4176 342.031 86.4621 345.436 85.3901 348.747C84.1999 352.423 82.8946 356.231 83.7519 359.935C83.8558 360.384 82.9951 360.544 82.8914 360.096C81.3998 353.652 86.1112 347.32 86.1594 340.847C86.1818 337.827 85.1037 334.851 82.1583 333.089C79.5826 331.549 76.2944 331.054 73.2578 330.312C70.1866 329.661 67.3329 328.317 64.9459 326.399C62.6784 324.387 60.8424 321.989 59.5362 319.335C56.5344 313.484 54.6918 307.174 54.0973 300.71C53.3753 293.21 54.1884 285.65 56.4933 278.433C56.6371 277.978 57.4447 278.197 57.3018 278.649L57.3018 278.649Z" fill="white"/>
<path d="M57.6513 314.144C52.1157 315.585 46.3661 313.495 44.2086 309.283C43.9961 308.868 44.7911 308.526 45.0039 308.941C47.0251 312.887 52.3469 314.788 57.5214 313.441C58.066 313.3 58.1927 314.004 57.6513 314.144Z" fill="white"/>
<path d="M71.5897 329.312C73.0602 327.378 74.094 325.184 74.6286 322.865C75.1631 320.545 75.1872 318.149 74.6993 315.821C74.5974 315.372 75.458 315.211 75.5598 315.66C76.0618 318.084 76.0309 320.579 75.4688 322.991C74.9067 325.404 73.8252 327.685 72.29 329.696C71.9887 330.106 71.2901 329.72 71.5897 329.312H71.5897Z" fill="white"/>
<path d="M54.4559 293.559C55.536 293.478 56.5834 293.175 57.5237 292.672C58.464 292.169 59.2739 291.479 59.8958 290.651C60.1909 290.238 60.8892 290.624 60.596 291.034C59.9048 291.947 59.0093 292.708 57.9715 293.266C56.9336 293.823 55.7784 294.163 54.5857 294.263C54.3489 294.282 54.1314 294.198 54.0905 293.991C54.0809 293.889 54.1133 293.788 54.1812 293.708C54.2492 293.627 54.3474 293.574 54.4559 293.559Z" fill="white"/>
<path d="M106.938 154.324L108.183 165.097L107.451 179.224L140.971 175.506L144.121 154.324L140.108 154.361L106.938 154.324Z" fill="#FFB6B6"/>
<path d="M89.5522 349.912H96.8808L100.369 323.526H89.5522V349.912Z" fill="#FFB6B6"/>
<path d="M87.1606 345.227L98.869 344.574V349.257L110 356.433C110.55 356.787 110.964 357.297 111.182 357.886C111.4 358.476 111.41 359.115 111.211 359.71C111.013 360.306 110.615 360.826 110.077 361.196C109.539 361.566 108.888 361.765 108.22 361.765H94.2807L91.8781 357.133L90.94 361.765H85.6843L87.1606 345.227Z" fill="#2F2E41"/>
<path d="M130.718 349.912H138.047L141.534 323.526H130.718V349.912Z" fill="#FFB6B6"/>
<path d="M128.326 345.227L140.035 344.574V349.257L151.166 356.433C151.716 356.787 152.13 357.297 152.348 357.886C152.566 358.476 152.576 359.115 152.377 359.71C152.178 360.306 151.781 360.826 151.243 361.196C150.705 361.566 150.054 361.765 149.386 361.765H135.446L133.044 357.133L132.106 361.765H126.85L128.326 345.227Z" fill="#2F2E41"/>
<path d="M86.3904 327.158H86.4701L87.8795 284.254C86.9674 282.612 86.5046 280.785 86.5321 278.935C86.5596 277.085 87.0766 275.271 88.0372 273.653L88.239 273.312L87.7158 271.048C87.0438 268.139 87.3522 265.108 88.5986 262.369L89.9135 222.348C85.216 193.93 107.603 175.397 107.603 175.397H141.138L148.338 198.488C153.098 241.774 152.234 283.955 144.681 324.821L144.887 324.918C145.629 325.157 145.947 326.116 145.598 327.06C145.249 328.003 144.365 328.575 143.623 328.336L125.913 327.761C125.171 327.522 124.853 326.563 125.202 325.62C125.551 324.676 126.435 324.104 127.176 324.343L128.381 324.912L125.813 283.511L126.098 275.949L125.51 267.37L122.796 228.782L112.52 276.235L102.024 327.635C102.313 327.88 102.517 328.201 102.607 328.555C102.697 328.91 102.67 329.282 102.529 329.622C102.387 329.962 102.139 330.254 101.817 330.46C101.494 330.665 101.113 330.775 100.722 330.773H86.3904C86.1358 330.774 85.8836 330.727 85.6482 330.637C85.4128 330.546 85.1989 330.413 85.0187 330.245C84.8385 330.077 84.6955 329.878 84.598 329.658C84.5004 329.439 84.4502 329.203 84.4502 328.966C84.4502 328.728 84.5004 328.493 84.598 328.273C84.6955 328.053 84.8385 327.854 85.0187 327.686C85.1989 327.518 85.4128 327.385 85.6482 327.294C85.8836 327.204 86.1358 327.157 86.3904 327.158Z" fill="#2F2E41"/>
<path d="M112.792 99.1978C122.726 99.1978 130.779 91.6804 130.779 82.4071C130.779 73.1339 122.726 65.6165 112.792 65.6165C102.858 65.6165 94.8042 73.1339 94.8042 82.4071C94.8042 91.6804 102.858 99.1978 112.792 99.1978Z" fill="#FFB6B6"/>
<path d="M33.9712 159.979C36.4992 154.501 39.9708 149.445 44.2482 145.014C40.6261 150.402 38.5561 156.573 38.2386 162.927C39.5499 163.692 40.922 164.362 42.3428 164.931C46.6127 166.603 51.1653 167.557 55.7909 167.751C58.2841 159.998 62.5872 152.856 68.3908 146.841C64.2083 153.067 62.105 160.314 62.3486 167.66C67.5079 167.243 72.5912 166.226 77.4802 164.633C84.8209 162.275 91.9462 158.755 97.0227 153.279C102.517 147.353 105.225 139.532 106.099 131.736C106.973 123.945 106.151 116.082 105.323 108.286C104.931 104.57 108.246 100.295 107.854 96.5792H107.593C105.851 94.3499 104.076 92.0658 103.222 89.4224C102.373 86.785 102.595 83.6726 104.546 81.5956C105.639 80.5103 107.019 79.7122 108.546 79.281C108.69 79.1105 108.846 78.946 109.009 78.7816C111.964 75.8522 115.441 73.4244 119.286 71.6065C116.513 73.5617 114.66 75.7727 113.799 78.0568C116.2 77.5634 118.601 77.0721 121.002 76.5828C121.805 75.7882 122.65 75.0319 123.534 74.317C124.819 73.2754 125.244 73.1962 126.777 72.2156C125.539 73.2322 124.579 74.5102 123.978 75.9432C127.064 75.2184 130.15 74.1282 131.756 71.6492C134.418 67.55 131.253 62.0195 126.836 59.5709C123.622 57.8765 119.92 57.1677 116.251 57.5448C112.583 57.9219 109.134 59.3658 106.393 61.6723C100.005 57.2807 90.9088 57.3539 83.803 60.6368C79.1119 62.9012 75.0708 66.1825 72.0187 70.2056C73.7892 69.9935 75.5714 69.8776 77.3562 69.8584C74.8437 70.2017 72.4512 71.0858 70.3679 72.441C69.4462 73.7768 68.6011 75.1573 67.8362 76.5766C67.3338 77.5086 66.8596 78.4527 66.4137 79.4089C63.6797 85.2196 61.8984 91.408 60.0518 97.5232C57.8985 104.65 55.5887 111.825 51.5562 118.202C45.3734 127.899 35.62 135.163 24.1183 138.637C23.1592 146.695 27.3743 154.576 33.9712 159.979Z" fill="#2F2E41"/>
<path d="M130.906 110.426L127.415 109.203L123.012 102.558L107.331 103.754L103.52 110.879L94.3381 117.424L98.3535 137.164L104.592 161.143L146.352 156.27L146.308 138.219C146.308 138.219 153.854 123.958 141.664 118.615L130.906 110.426Z" fill="#6C63FF"/>
<path d="M195.275 173.039C194.464 173.342 193.592 173.476 192.72 173.432C191.848 173.387 190.997 173.164 190.227 172.779C189.457 172.394 188.787 171.855 188.264 171.202C187.74 170.549 187.377 169.797 187.199 168.999L140.637 142.699L149.147 133.533L192.241 162.267C193.697 162.077 195.178 162.392 196.402 163.153C197.626 163.913 198.509 165.067 198.883 166.395C199.257 167.722 199.097 169.132 198.432 170.357C197.767 171.581 196.643 172.535 195.275 173.039V173.039Z" fill="#FFB6B6"/>
<path d="M125.121 130.227C125.121 130.227 122.896 132.317 128.48 135.754C132.95 138.505 152.888 152.1 159.955 154.251C159.867 155.22 160.126 156.189 160.693 157.005C161.259 157.821 162.101 158.439 163.084 158.759L169.484 145.632C168.098 142.631 165.883 143.326 164.717 144.007L156.988 138.581L138.009 120.891L126.701 128.69L125.121 130.227Z" fill="#6C63FF"/>
<path d="M106.507 62.1292C104.345 65.1072 102.948 68.5108 102.425 72.0751C101.903 75.6394 102.268 79.2681 103.493 82.6791" fill="#FD6584"/>
<path d="M15.2495 361.31C15.2492 361.4 15.2682 361.49 15.3052 361.574C15.3423 361.658 15.3968 361.734 15.4656 361.799C15.5343 361.863 15.616 361.914 15.7059 361.948C15.7958 361.983 15.8921 362 15.9893 362H190.23C190.426 362 190.615 361.927 190.753 361.798C190.892 361.668 190.97 361.493 190.97 361.31C190.97 361.127 190.892 360.951 190.753 360.821C190.615 360.692 190.426 360.619 190.23 360.619H15.9893C15.8921 360.619 15.7958 360.637 15.7059 360.671C15.616 360.706 15.5343 360.757 15.4656 360.821C15.3968 360.885 15.3423 360.961 15.3052 361.045C15.2682 361.129 15.2492 361.219 15.2495 361.31Z" fill="#CCCCCC"/>
<path d="M81.6356 204.359C81.2014 204.502 80.8456 204.799 80.6462 205.187C80.4468 205.574 80.4201 206.019 80.5719 206.425L104.847 271.736C105 272.141 105.319 272.473 105.734 272.659C106.149 272.845 106.626 272.87 107.061 272.729L248.311 226.468C248.745 226.325 249.101 226.027 249.3 225.64C249.5 225.252 249.526 224.807 249.375 224.401L225.099 159.09C224.946 158.685 224.627 158.353 224.212 158.167C223.797 157.981 223.32 157.956 222.885 158.098L81.6356 204.359Z" fill="#E6E6E6"/>
<path d="M117.388 263.303C114.608 263.302 111.897 262.497 109.626 261C107.356 259.503 105.638 257.386 104.709 254.941L91.3773 219.732C90.1899 216.596 90.3857 213.148 91.9215 210.147C93.4573 207.146 96.2074 204.837 99.5667 203.729L170.956 180.176C184.32 175.782 199.004 176.516 211.789 182.217C224.573 187.918 234.413 198.12 239.149 210.584C240.337 213.72 240.141 217.168 238.605 220.169C237.069 223.17 234.319 225.479 230.96 226.587L230.856 226.314L230.96 226.587L121.852 262.585C120.418 263.059 118.909 263.302 117.388 263.303Z" fill="white"/>
<path d="M212.058 193.898L148.136 214.833C147.235 215.128 146.119 214.34 145.642 213.073C145.166 211.806 145.51 210.539 146.411 210.244L210.333 189.309C211.234 189.014 212.35 189.802 212.827 191.069C213.303 192.336 212.959 193.604 212.058 193.898Z" fill="#E6E6E6"/>
<path d="M217.002 207.052L153.08 227.988C152.179 228.283 151.063 227.494 150.586 226.227C150.11 224.96 150.454 223.694 151.355 223.399L215.277 202.463C216.178 202.168 217.294 202.957 217.771 204.224C218.247 205.491 217.903 206.757 217.002 207.052Z" fill="#E6E6E6"/>
<path d="M139.486 221.99C140.173 223.796 140.506 225.701 140.471 227.617C140.457 228.494 140.364 229.367 140.193 230.229C139.648 233.014 138.325 235.615 136.358 237.77C134.391 239.924 131.849 241.556 128.99 242.499C126.13 243.442 123.055 243.664 120.074 243.142C117.094 242.62 114.313 241.373 112.015 239.526C111.783 239.341 111.557 239.149 111.337 238.952C109.46 237.273 108.014 235.219 107.109 232.943C106.204 230.668 105.862 228.231 106.11 225.815C106.358 223.399 107.188 221.067 108.54 218.993C109.891 216.92 111.728 215.159 113.912 213.842C116.097 212.526 118.572 211.689 121.153 211.393C123.733 211.097 126.352 211.351 128.813 212.135C131.274 212.919 133.512 214.213 135.361 215.92C137.209 217.626 138.62 219.702 139.486 221.99Z" fill="#E4E4E4"/>
<path d="M123.968 229.801C125.786 229.801 127.26 228.426 127.26 226.729C127.26 225.032 125.786 223.656 123.968 223.656C122.15 223.656 120.676 225.032 120.676 226.729C120.676 228.426 122.15 229.801 123.968 229.801Z" fill="#FD6584"/>
<path d="M111.337 238.952C112.182 237.121 113.181 234.328 115.494 235.345C116.637 235.808 118.684 237.213 119.515 235.579L126.024 222.861C126.147 222.624 126.32 222.412 126.532 222.238C126.745 222.064 126.992 221.932 127.26 221.848C127.528 221.765 127.811 221.732 128.093 221.753C128.374 221.773 128.649 221.845 128.9 221.966L140.471 227.617C140.457 228.493 140.364 229.367 140.193 230.229L112.015 239.526L111.337 238.952Z" fill="#3F3D56"/>
<path d="M114.696 201.395C113.882 201.099 113.147 200.641 112.543 200.052C111.939 199.462 111.481 198.757 111.201 197.984C110.921 197.212 110.826 196.392 110.922 195.581C111.019 194.771 111.304 193.99 111.759 193.293L97.0283 144.388L109.952 143.127L120.368 191.596C121.57 192.387 122.421 193.561 122.757 194.898C123.094 196.234 122.894 197.64 122.194 198.847C121.495 200.055 120.346 200.982 118.964 201.451C117.582 201.921 116.063 201.901 114.696 201.395Z" fill="#FFB6B6"/>
<path d="M94.849 117.542C94.849 117.542 91.6944 117.647 93.2537 123.718C94.502 128.578 99.0866 159.067 102.671 165.146C101.897 165.797 101.377 166.67 101.193 167.627C101.008 168.584 101.171 169.572 101.654 170.434L115.937 164.934C117.123 161.86 116.204 159.069 114.855 158.822L113.187 149.93L110.727 120.101L97.1278 117.427L94.849 117.542Z" fill="#6C63FF"/>
<path d="M223.517 246.218L203.763 246.982C203.341 246.999 202.921 246.927 202.533 246.771C202.145 246.614 201.8 246.378 201.524 246.08C201.251 245.789 201.053 245.444 200.943 245.072C200.834 244.699 200.816 244.309 200.892 243.929C202.408 236.213 201.966 228.273 199.602 220.745C199.419 220.169 199.456 219.552 199.707 218.999C199.957 218.446 200.405 217.991 200.974 217.712C209.065 213.788 216.647 213.589 223.506 217.12C223.866 217.302 224.178 217.556 224.422 217.862C224.666 218.169 224.836 218.522 224.918 218.896C226.704 227.11 227.132 235.531 226.188 243.866C226.122 244.494 225.816 245.078 225.325 245.51C224.834 245.942 224.191 246.194 223.517 246.218Z" fill="#6C63FF"/>
<path d="M222.681 234.15L207.577 234.734C207.391 234.741 207.205 234.714 207.03 234.654C206.855 234.595 206.694 234.503 206.557 234.386C206.42 234.268 206.309 234.126 206.231 233.968C206.152 233.811 206.108 233.64 206.1 233.466C206.092 233.292 206.121 233.119 206.186 232.956C206.25 232.792 206.348 232.642 206.474 232.514C206.6 232.387 206.752 232.283 206.921 232.21C207.09 232.137 207.273 232.096 207.459 232.089L222.563 231.505C222.749 231.498 222.935 231.525 223.11 231.585C223.285 231.644 223.445 231.736 223.582 231.853C223.719 231.971 223.83 232.113 223.909 232.271C223.987 232.428 224.031 232.599 224.039 232.773C224.047 232.946 224.018 233.12 223.953 233.283C223.889 233.446 223.792 233.596 223.665 233.724C223.539 233.852 223.387 233.955 223.218 234.028C223.05 234.101 222.867 234.143 222.681 234.15Z" fill="white"/>
<path d="M222.475 229.511L207.371 230.095C206.995 230.11 206.629 229.985 206.352 229.747C206.076 229.509 205.911 229.178 205.896 228.828C205.88 228.477 206.015 228.135 206.269 227.876C206.524 227.618 206.878 227.465 207.254 227.45L222.358 226.866C222.734 226.852 223.1 226.977 223.377 227.215C223.654 227.453 223.818 227.783 223.833 228.134C223.849 228.485 223.715 228.827 223.46 229.085C223.205 229.344 222.851 229.497 222.475 229.511Z" fill="white"/>
<path d="M584.79 101.976L565.188 99.5764C564.769 99.5259 564.367 99.3876 564.014 99.1717C563.66 98.9559 563.364 98.6681 563.147 98.33C562.931 98.0001 562.799 97.629 562.759 97.2445C562.72 96.86 562.774 96.4721 562.918 96.1099C565.824 88.7495 566.843 80.8558 565.893 73.0615C565.818 72.4652 565.968 71.8632 566.316 71.3582C566.664 70.8532 567.188 70.4765 567.801 70.2923C576.491 67.7173 583.997 68.7312 590.109 73.3047C590.43 73.5418 590.692 73.8413 590.876 74.1823C591.06 74.5234 591.162 74.8979 591.175 75.2796C591.43 83.6581 590.31 92.0235 587.853 100.085C587.673 100.693 587.264 101.219 586.701 101.567C586.138 101.915 585.459 102.06 584.79 101.976Z" fill="#6C63FF"/>
<path d="M586.177 89.9521L571.188 88.1171C571.004 88.0945 570.826 88.0381 570.664 87.9513C570.503 87.8644 570.362 87.7488 570.248 87.6109C570.135 87.4731 570.052 87.3157 570.003 87.1478C569.955 86.98 569.943 86.8049 569.967 86.6325C569.991 86.4601 570.051 86.2939 570.144 86.1433C570.237 85.9928 570.361 85.8608 570.509 85.7549C570.657 85.649 570.825 85.5713 571.005 85.5262C571.185 85.4812 571.373 85.4696 571.557 85.4922L586.546 87.3273C586.919 87.3729 587.257 87.555 587.486 87.8334C587.715 88.1118 587.816 88.4637 587.767 88.8118C587.718 89.1599 587.523 89.4756 587.225 89.6895C586.927 89.9033 586.55 89.9978 586.177 89.9521Z" fill="white"/>
<path d="M586.824 85.3492L571.835 83.5141C571.65 83.4918 571.472 83.4357 571.31 83.349C571.149 83.2623 571.007 83.1466 570.893 83.0087C570.779 82.8708 570.696 82.7133 570.648 82.5452C570.599 82.3771 570.587 82.2018 570.611 82.0292C570.635 81.8567 570.696 81.6903 570.789 81.5395C570.882 81.3888 571.006 81.2567 571.154 81.1508C571.302 81.045 571.471 80.9673 571.651 80.9225C571.831 80.8776 572.019 80.8663 572.204 80.8893L587.193 82.7243C587.377 82.7466 587.556 82.8027 587.717 82.8895C587.879 82.9762 588.021 83.0918 588.135 83.2298C588.248 83.3677 588.332 83.5252 588.38 83.6933C588.429 83.8613 588.441 84.0367 588.417 84.2092C588.393 84.3818 588.332 84.5482 588.239 84.6989C588.146 84.8497 588.021 84.9818 587.874 85.0876C587.726 85.1935 587.557 85.2711 587.377 85.316C587.196 85.3609 587.009 85.3722 586.824 85.3492Z" fill="white"/>
<path d="M323.674 137.442H317.147V131.349C317.147 129.887 316.525 128.484 315.418 127.451C314.31 126.417 312.808 125.836 311.242 125.836C309.675 125.836 308.173 126.417 307.066 127.451C305.958 128.484 305.336 129.887 305.336 131.349V137.442H298.809C297.242 137.442 295.74 138.022 294.633 139.056C293.525 140.09 292.903 141.492 292.903 142.954C292.903 144.416 293.525 145.818 294.633 146.852C295.74 147.886 297.242 148.467 298.809 148.467H305.336V154.56C305.336 156.022 305.958 157.424 307.066 158.458C308.173 159.492 309.675 160.073 311.242 160.073C312.808 160.073 314.31 159.492 315.418 158.458C316.525 157.424 317.147 156.022 317.147 154.56V148.467H323.674C325.241 148.467 326.743 147.886 327.85 146.852C328.958 145.818 329.58 144.416 329.58 142.954C329.58 141.492 328.958 140.09 327.85 139.056C326.743 138.022 325.241 137.442 323.674 137.442Z" fill="white"/>
<path d="M535.056 24.6821C538.493 24.6821 541.279 22.0812 541.279 18.8727C541.279 15.6642 538.493 13.0632 535.056 13.0632C531.618 13.0632 528.832 15.6642 528.832 18.8727C528.832 22.0812 531.618 24.6821 535.056 24.6821Z" fill="#3F3D56"/>
<path d="M152.744 188.902C156.181 188.902 158.968 186.301 158.968 183.092C158.968 179.884 156.181 177.283 152.744 177.283C149.307 177.283 146.521 179.884 146.521 183.092C146.521 186.301 149.307 188.902 152.744 188.902Z" fill="#3F3D56"/>
</g>
<defs>
<clipPath id="clip0_18_1155">
<rect width="615" height="362" fill="white"/>
</clipPath>
</defs>
</svg>
